<?xml version="1.0" encoding="UTF-8"?> <svg xmlns="http://www.w3.org/2000/svg" id="Layer_1" data-name="Layer 1" width="140" height="36" viewBox="0 0 140 36"><defs><style>.cls-1{fill:#0a0f38;}</style></defs><path class="cls-1" d="M116.13,28.82c-3.69,0-5.33-1.64-5.33-5.33V12.91l3.85,2.22v8.3c0,1.37.39,1.78,1.67,1.78H120v3.56Z"></path><polygon class="cls-1" points="107.27 12.91 108.31 9.36 110.8 9.36 110.8 5.35 114.65 3.12 114.65 9.36 119.43 9.36 119.43 12.91 107.27 12.91"></polygon><path class="cls-1" d="M102.42,9.36,96.9,28.83,91.36,9.36H87.43l5.72,19.47H96.9l-.8,2.77a1.68,1.68,0,0,1-1.61,1.18H87.8V36h6.74a5.31,5.31,0,0,0,5.12-3.55l6.73-23Z"></path><path class="cls-1" d="M13.82,25.43c-5.53,0-10-4.94-10-10.8s4.5-10.86,10-10.86A9.69,9.69,0,0,1,21.2,7.33l3.41-2A13.76,13.76,0,0,0,13.82,0,14.17,14.17,0,0,0,.08,12.15l3.73,2.16L0,16.5A14.25,14.25,0,0,0,13.82,29.18a13.79,13.79,0,0,0,11.1-5.78l-3.39-2a9.74,9.74,0,0,1-7.73,4"></path><path class="cls-1" d="M84.24,10.54A8,8,0,0,0,79.1,9h0A9.47,9.47,0,0,0,72,12.08l-2.84-1.6V28.82h3.56V18.14h0c0-3.4,2-6.06,5.58-6.06a4.54,4.54,0,0,1,4.39,2.24,10.43,10.43,0,0,1,.7,4.88v9.57H87V20.18C86.94,16.82,87.06,12.87,84.24,10.54Z"></path><path class="cls-1" d="M60.64,24.76l2.61,1.56A7.79,7.79,0,0,1,58.83,29c-3.83.64-8.43-.72-10.35-4.56A12.46,12.46,0,0,1,48.94,13c2.28-3.56,7.12-4.75,11-3.47a8.94,8.94,0,0,1,3.93,2.6l2.83-1.64V30.8c0,3.56-1.57,5.15-5.13,5.15H54V32.76h7.34c1.36,0,1.87-.51,1.87-1.88V18.11a6,6,0,0,0-6-6h0c-2.74,0-6.1,2-6.1,7.12,0,4.21,2.66,6.84,5.94,6.84A6,6,0,0,0,60.64,24.76Z"></path><path class="cls-1" d="M37.85,9,36,12.28,34.05,9c-3.23.51-7.79,2.94-7.79,10S30.78,29.19,36,29.19,45.64,26.13,45.64,19,41.08,9.48,37.85,9Zm4,10.23c-.1,4.07-2.23,6.65-5.94,6.71S30.12,23.27,30,19.2s2.26-7,5.93-7S42,15.18,41.85,19.2Z"></path><path class="cls-1" d="M124.58,17.16l2,3.44h13.36a15.21,15.21,0,0,0-.11-3.93c-.61-3.93-3.71-7.62-9.49-7.62-6.74,0-9.69,4.63-9.69,10.06s3,10.07,9.69,10.07c3.12,0,5.77-.62,8.16-4.07l-3.29-1.9a5.46,5.46,0,0,1-4.86,2.57c-2.37,0-5.93-1.43-5.93-6.67,0-4.4,2.52-6.88,5.93-6.88a5.66,5.66,0,0,1,5.72,4.93Z"></path></svg> 