<?xml version="1.0" encoding="UTF-8"?> <svg xmlns="http://www.w3.org/2000/svg" xmlns:xlink="http://www.w3.org/1999/xlink" viewBox="0 0 751.87 188.04"><defs><style>.cls-1{fill:url(#linear-gradient);}.cls-2{opacity:0.7;fill:url(#linear-gradient-2);}.cls-3{opacity:0.5;fill:url(#linear-gradient-3);}</style><linearGradient id="linear-gradient" x1="249.39" y1="274.01" x2="30.91" y2="274.01" gradientTransform="translate(-70.42 -170.94) rotate(-8.36)" gradientUnits="userSpaceOnUse"><stop offset="0" stop-color="#4bd2fd"></stop><stop offset="0.19" stop-color="#41c5fc"></stop><stop offset="0.54" stop-color="#28a2f8"></stop><stop offset="1" stop-color="#006df3"></stop></linearGradient><linearGradient id="linear-gradient-2" x1="224.38" y1="192.7" x2="167.24" y2="364.83" gradientTransform="translate(-70.42 -170.94) rotate(-8.36)" gradientUnits="userSpaceOnUse"><stop offset="0" stop-color="#4bd2fd"></stop><stop offset="0.12" stop-color="#41c5fc"></stop><stop offset="0.33" stop-color="#28a2f8"></stop><stop offset="0.62" stop-color="#006df3"></stop><stop offset="0.65" stop-color="#006df3" stop-opacity="0.97"></stop><stop offset="0.7" stop-color="#006df3" stop-opacity="0.88"></stop><stop offset="0.77" stop-color="#006df3" stop-opacity="0.73"></stop><stop offset="0.84" stop-color="#006df3" stop-opacity="0.52"></stop><stop offset="0.93" stop-color="#006df3" stop-opacity="0.26"></stop><stop offset="1" stop-color="#006df3" stop-opacity="0"></stop></linearGradient><linearGradient id="linear-gradient-3" x1="269.98" y1="199.4" x2="212.84" y2="371.53" xlink:href="#linear-gradient-2"></linearGradient></defs><g id="Layer_2" data-name="Layer 2"><g id="Layer_2-2" data-name="Layer 2"><path d="M315.82,61.17a8.82,8.82,0,0,1,6.26-15.08,8.12,8.12,0,0,1,6.05,2.56,9.14,9.14,0,0,1,0,12.52,8.15,8.15,0,0,1-6.05,2.56A8.54,8.54,0,0,1,315.82,61.17Zm12.52,10.55v77.92H315.4V71.72Z"></path><path d="M395.33,74.82a29.31,29.31,0,0,1,11.31,11.1V71.7h13.08v79.65a38.92,38.92,0,0,1-4.55,19,32.42,32.42,0,0,1-13,13,40,40,0,0,1-19.7,4.69q-15.36,0-25.6-7.25A28.35,28.35,0,0,1,344.77,161h12.8a20.37,20.37,0,0,0,8.82,11.45,28.87,28.87,0,0,0,16.07,4.34q10.67,0,17.42-6.69t6.76-18.77V135a31.25,31.25,0,0,1-11.38,11.38,33.53,33.53,0,0,1-17.64,4.55,35.45,35.45,0,0,1-32.14-19.49,44.66,44.66,0,0,1-4.84-21.05,43.73,43.73,0,0,1,4.84-21,35,35,0,0,1,13.3-14,36.54,36.54,0,0,1,18.84-5A34.79,34.79,0,0,1,395.33,74.82Zm7.75,20.34a25.08,25.08,0,0,0-9.6-10A27.23,27.23,0,0,0,367,85.06a24.74,24.74,0,0,0-9.52,10,31.57,31.57,0,0,0-3.56,15.36A32.32,32.32,0,0,0,357.43,126,25,25,0,0,0,367,136.05a25.75,25.75,0,0,0,13.23,3.49,26.09,26.09,0,0,0,13.3-3.49,25,25,0,0,0,9.6-10.09,32.14,32.14,0,0,0,3.56-15.44A31.74,31.74,0,0,0,403.08,95.16Z"></path><path d="M487.67,74a26.71,26.71,0,0,1,11.16,11.31q4.05,7.55,4.06,18.35v45.94h-12.8V105.55q0-11.67-5.84-17.85t-15.93-6.19q-10.23,0-16.28,6.4T446,106.54v43.1H433.05V46.09H446v36.7a25.56,25.56,0,0,1,10.6-9.25,34.3,34.3,0,0,1,15.15-3.27A33.54,33.54,0,0,1,487.67,74Z"></path><path d="M532.68,82.36V128.3c0,3.8.81,6.47,2.42,8s4.41,2.35,8.39,2.35H553v10.95H541.36q-10.82,0-16.22-5t-5.4-16.36V82.36h-10.1V71.7h10.1V46.09h12.94V71.7H553V82.36Z"></path><path d="M566.39,61.17a8.82,8.82,0,0,1,6.26-15.08,8.09,8.09,0,0,1,6,2.56,9.11,9.11,0,0,1,0,12.52,8.13,8.13,0,0,1-6,2.56A8.54,8.54,0,0,1,566.39,61.17Zm12.52,10.55v77.92H566V71.72Z"></path><path d="M594.85,89.4a34.76,34.76,0,0,1,13.44-14,38.68,38.68,0,0,1,19.7-5q14.35,0,23.68,7T664,96.73H650a20,20,0,0,0-7.75-11.24q-5.76-4.12-14.29-4.12-11.1,0-17.93,7.61t-6.82,21.54q0,14.08,6.82,21.77T628,140q8.53,0,14.22-4A20.16,20.16,0,0,0,650,124.61H664a34.32,34.32,0,0,1-12.52,19.13q-9.37,7.19-23.46,7.18a38.58,38.58,0,0,1-19.7-5,34.63,34.63,0,0,1-13.44-14.08Q590,122.76,590,110.52,590,98.45,594.85,89.4Z"></path><path d="M692.07,145.87a35.42,35.42,0,0,1-13.94-14.15,43.38,43.38,0,0,1-5-21.27,42.17,42.17,0,0,1,5.19-21.12,35.81,35.81,0,0,1,14.15-14.08,43.41,43.41,0,0,1,40.11,0,36,36,0,0,1,14.15,14,42.07,42.07,0,0,1,5.19,21.19,41.52,41.52,0,0,1-5.33,21.27,37,37,0,0,1-14.44,14.15,41.38,41.38,0,0,1-20.19,5A39.87,39.87,0,0,1,692.07,145.87ZM725,136.2a24.93,24.93,0,0,0,9.89-9.81q3.76-6.56,3.77-15.94T735,94.52a24.24,24.24,0,0,0-9.67-9.74,27.92,27.92,0,0,0-26,0,23.42,23.42,0,0,0-9.46,9.74q-3.55,6.56-3.55,15.93,0,9.54,3.48,16.08a23.18,23.18,0,0,0,9.32,9.74,26.17,26.17,0,0,0,12.8,3.2A27.34,27.34,0,0,0,725,136.2Z"></path><path class="cls-1" d="M0,95.61,20.69,66l33,31.9S104.41,5.77,206.77,0c0,0-95.52,29.7-146.4,152.77Z"></path><path class="cls-2" d="M74.82,152.77a439.32,439.32,0,0,1,45-76.38c9.6-13,21.31-23.82,33.86-33.87,24.91-20,55.68-40.07,99.18-42.52,0,0-95.52,29.7-146.4,152.77Z"></path><path class="cls-3" d="M120.92,152.77a438.64,438.64,0,0,1,45-76.38c9.6-13,21.31-23.82,33.86-33.87C224.68,22.56,255.45,2.45,299,0c0,0-95.52,29.7-146.4,152.77Z"></path><path d="M269.93,46.09v93.08h34.53v10.47H257.05V46.09Z"></path></g></g></svg> 