<svg width="188" height="42" viewBox="0 0 188 42" fill="none" xmlns="http://www.w3.org/2000/svg">
  <g clip-path="url(#clip0_4_3100)">
    <path class="cls-2" d="M9.08073 17.1262C9.15974 17.1262 9.22157 17.1873 9.22157 17.2654C9.29714 21.4413 12.7459 24.8057 16.9916 24.8057H31.5185C31.6284 24.8057 31.7005 24.9245 31.649 25.0196C28.8185 30.1426 23.319 33.6225 16.9951 33.6225C7.82694 33.6225 0.383205 26.3165 0.304199 17.2722C0.304199 17.1908 0.369465 17.1262 0.451906 17.1262H9.08073Z" fill="#3BD1BB"></path>
    <path class="cls-1" d="M24.906 17.1262C24.827 17.1262 24.7652 17.0651 24.7652 16.987C24.6896 12.8111 21.2408 9.4467 16.9951 9.4467H2.46831C2.35839 9.4467 2.28625 9.32787 2.33778 9.23281C5.16825 4.10976 10.6678 0.629883 16.9917 0.629883C26.1598 0.629883 33.6036 7.93592 33.6826 16.9802C33.6826 17.0617 33.6173 17.1262 33.5349 17.1262H24.9026H24.906Z" fill="#3BD1BB"></path>
    <path class="cls-3" d="M129.188 13.2438C132.341 13.2438 134.045 15.0533 134.395 17.2057H139.912C139.517 12.5546 135.663 8.24634 129.188 8.24634C122.005 8.24634 117.498 13.1962 117.498 19.9625C117.498 26.7287 122.139 31.682 129.188 31.682C135.707 31.682 139.517 27.3738 139.912 22.7226H134.395C134.045 24.875 132.337 26.6846 129.188 26.6846C125.333 26.6846 123.101 23.9244 123.101 19.9625C123.101 16.0005 125.333 13.2438 129.188 13.2438Z" fill="#000000"></path>
    <path class="cls-3" d="M147.953 11.0168H142.351V31.3359H147.953V11.0168Z" fill="#000000"></path>
    <path class="cls-3" d="M106.715 8.23975H106.722C100.096 8.24314 99.0033 13.6547 98.9346 14.0452V8.99001H93.3252V31.3325H98.9278V22.0709C98.9278 16.8155 101.906 13.2372 105.145 13.2372C108.079 13.2372 109.432 14.6597 109.432 19.7861V31.3325H115.035V17.8917C115.035 11.431 111.706 8.23975 106.715 8.23975Z" fill="#000000"></path>
    <path class="cls-3" d="M79.5235 8.24316C72.4748 8.24316 68.0127 12.857 68.0127 19.9627C68.0127 27.0684 72.1244 31.6822 79.6128 31.6822C85.7822 31.6822 89.0249 28.1073 90.0313 23.412H84.3395C83.6834 25.4354 82.33 26.8546 79.6575 26.8546C76.1572 26.8546 73.8798 24.787 73.4847 21.3411H90.2958C90.3817 20.6926 90.4264 20.2615 90.4264 19.6572C90.4264 11.3835 84.865 8.24316 79.5235 8.24316ZM73.708 17.5489C74.2782 14.8329 75.8927 12.7212 79.7022 12.7212C82.9414 12.7212 84.604 14.7921 84.8238 17.5489H73.708Z" fill="#000000"></path>
    <path class="cls-3" d="M65.7763 26.2364H53.8567L69.2182 7.18364V2.97046H46.3442V8.01542H61.5443L46.0488 27.316V31.2814H69.9121C68.064 30.032 66.6763 28.3073 65.7763 26.2364Z" fill="#000000"></path>
    <path class="cls-3" d="M147.953 2.97046H142.351V8.59257H147.953V2.97046Z" fill="#000000"></path>
    <path class="cls-3" d="M156.451 24.6851V16.3334V14.1063H162.002L159.708 8.58942H156.451V2.96729H150.845V16.3334H150.849V24.3558C150.849 29.8285 153.037 31.3325 157.678 31.3325H162.755V25.8156H157.605C156.97 25.8156 156.455 25.3064 156.455 24.6817L156.451 24.6851Z" fill="#000000"></path>
    <path class="cls-3" d="M180.294 8.59275V8.58936L174.973 24.3931L169.418 8.58936H162.833L171.658 31.1457L168.096 41.3342H173.946L186.886 8.59275H180.294Z" fill="#000000"></path>
  </g>
  <defs>
    <clipPath id="clip0_4_3100">
      <rect width="187.21" height="40.74" fill="white" transform="translate(0 0.629883)"></rect>
    </clipPath>
  </defs>
</svg>